<?xml version="1.0" encoding="UTF-8"?>
<svg id="Camada_1" data-name="Camada 1" xmlns="http://www.w3.org/2000/svg" xmlns:xlink="http://www.w3.org/1999/xlink" viewBox="0 0 85 103">
  <defs>
    <style>
      .cls-1 {
        fill: url(#Gradiente_sem_nome_13-3);
      }

      .cls-2 {
        fill: url(#Gradiente_sem_nome_13-2);
      }

      .cls-3 {
        fill: url(#Gradiente_sem_nome_13);
      }

      .cls-4 {
        fill: #858585;
      }

      .cls-5 {
        fill: url(#Gradiente_sem_nome_13-4);
      }
    </style>
    <linearGradient id="Gradiente_sem_nome_13" data-name="Gradiente sem nome 13" x1="10.67" y1="52.77" x2="71.88" y2="52.77" gradientUnits="userSpaceOnUse">
      <stop offset="0" stop-color="blue"/>
      <stop offset="1" stop-color="#f0f"/>
    </linearGradient>
    <linearGradient id="Gradiente_sem_nome_13-2" data-name="Gradiente sem nome 13" x1="8.06" y1="85.29" x2="32.5" y2="85.29" xlink:href="#Gradiente_sem_nome_13"/>
    <linearGradient id="Gradiente_sem_nome_13-3" data-name="Gradiente sem nome 13" x1="17.24" y1="76.42" x2="23.32" y2="76.42" xlink:href="#Gradiente_sem_nome_13"/>
    <linearGradient id="Gradiente_sem_nome_13-4" data-name="Gradiente sem nome 13" x1="51.07" y1="22.86" x2="71.84" y2="22.86" xlink:href="#Gradiente_sem_nome_13"/>
  </defs>
  <polygon class="cls-3" points="71.88 73.69 71.88 61.29 71.06 58.67 71.52 58.23 71.61 57.72 71.24 57.28 70.25 51.38 70.61 50.94 71.06 50.79 69.79 46.42 69.43 44.23 69.98 43.28 69.98 40.22 69.34 38.25 58.29 38.25 58.74 45.33 58.74 59.47 59.11 60.71 54.94 61.29 48.69 61.59 48.17 60.69 48.17 60.22 48.33 60.13 48.24 58.89 48.78 58.67 48.17 52.39 48.17 51.69 47.44 44.91 47.44 35.21 42.64 35.57 26.97 35.57 26.07 35.21 26.79 43.23 35.29 43.23 35.29 49.19 34.83 51.45 34.83 56.92 35.19 57.5 34.74 57.72 34.74 58.03 21.45 58.69 21.63 58.11 21.18 56.87 21.63 56.5 21.72 56.14 21.18 55.92 21 52.64 21.72 51.03 20.9 50.6 21.36 45.49 20.63 45.05 21.45 43.6 21 43.52 20.81 43.16 20.81 23.69 19.91 23.32 20.54 22.6 20.63 22.09 35.85 22.09 36.67 22.52 36.67 31.42 47.17 31.42 46.09 23.18 46.09 23.25 45.9 22.3 46.27 21.21 45.81 19.39 45.81 17.05 46.18 14.5 45.54 13.7 15.11 13.7 11.21 13.41 10.67 14.65 10.67 24.49 12.03 42.58 12.03 59.56 12.66 66.78 17.92 66.78 19.27 67 19.82 66.56 22.99 66.56 27.52 67.08 32.32 67.08 34.74 66.91 34.74 77.41 35.47 79.38 34.74 81.93 34.65 83.1 35.47 83.97 34.38 85.72 35.19 86.16 35.19 88.2 34.11 88.93 34.83 90.24 36.64 92.14 46.88 92.14 47.42 91.63 47.42 87.47 47.69 86.89 47.24 81.71 47.51 76.46 47.97 75.81 47.42 75.51 47.42 75 48.24 74.35 47.42 74.06 47.42 73.47 47.15 72.16 47.33 72.01 49.96 72.01 58.56 71.58 58.56 88.35 60.47 92.14 71.06 92.14 71.06 76.9 71.88 75.66 71.52 75 71.24 74.78 71.7 74.42 71.88 73.69"/>
  <path class="cls-2" d="M31.46,81.47l-8.08-3.38v1.63l7.49,3.2-8.94,4.53c-1.11.4-2.19.4-3.3,0l-8.94-4.53,7.49-3.2v-1.63l-8.08,3.38c-.53.23-.8.57-1.05,1.07v3.58c.22.4.36.78.79,1,3.39,1.38,6.85,3.83,10.21,5.1.97.36,1.46.36,2.43,0,3.37-1.27,6.83-3.73,10.21-5.1.44-.22.58-.6.79-1v-3.48c-.2-.58-.47-.93-1.05-1.18Z"/>
  <path class="cls-1" d="M18,84.06c.98.44,4.58.61,5.17-.38.77-1.29-2.16-1.38-2.19-1.54l.02-7.58c.74-.53,1.38-.66,1.87-1.49,1.12-1.89-.01-4.22-2.11-4.66h-.98c-2.1.44-3.23,2.77-2.11,4.66.5.84,1.14.96,1.87,1.49l.02,7.58c-1.02.06-3.63.99-1.58,1.91Z"/>
  <path class="cls-5" d="M61.15,29.77v3.45h.65v-3.45c3.51-.11,6.48-3,6.68-6.51h3.36v-.69h-3.36c-.04-3.4-2.78-6.34-6.14-6.71-.18-.02-.4.05-.53-.07v-3.3h-.65v3.3c-.1.12-.27.05-.41.07-3.39.37-6.14,3.29-6.18,6.72h-3.49v.69h3.49c.19,3.48,3.12,6.34,6.59,6.51ZM61.8,29.04v-1.36l.07-.06c2.29-.11,4.31-2.06,4.45-4.36h1.42c-.2,3.11-2.83,5.67-5.95,5.77ZM61.8,16.61s.04-.06.1-.06c.1,0,.36.03.47.05,2.94.38,5.34,3,5.38,5.98h-1.38c-.1-2.42-2.07-4.46-4.49-4.62l-.07-.06v-1.29ZM61.8,19.57v-.93s.04-.05.1-.06c.12,0,.42.06.56.09,1.78.39,3.24,2.06,3.27,3.91h-.95v.62l.06.06h.88c-.19,1.83-1.62,3.38-3.44,3.69-.09.01-.48.11-.48,0v-.8h-.65v.8c0,.1-.36.02-.44,0-1.75-.29-3.25-1.93-3.39-3.69h.82v-.69h-.82c.03-2.05,1.78-3.88,3.83-3.96v.95h.65ZM60.75,16.6c.11-.01.33-.06.4.02v1.36c-2.41.15-4.39,2.2-4.48,4.61h-1.38c0-2.98,2.49-5.68,5.45-5.98ZM56.72,23.27c.09,1.99,1.71,3.78,3.62,4.24.27.07.58.07.82.17v1.36c-3.07-.16-5.68-2.69-5.86-5.77h1.42Z"/>
  <rect class="cls-4" x="61.41" y="20.38" width=".13" height="1.81"/>
  <rect class="cls-4" x="59" y="22.8" width="1.81" height=".13"/>
  <rect class="cls-4" x="62.1" y="22.8" width="1.81" height=".13"/>
  <rect class="cls-4" x="61.41" y="23.49" width=".13" height="1.81"/>
</svg>